<svg xmlns="http://www.w3.org/2000/svg" xmlns:xlink="http://www.w3.org/1999/xlink" width="500" zoomAndPan="magnify" viewBox="0 0 375 374.999991" height="500" preserveAspectRatio="xMidYMid meet" version="1.0"><defs><clipPath id="3427313841"><path d="M 73 205 L 313 205 L 313 359.84375 L 73 359.84375 Z M 73 205 " clip-rule="nonzero"/></clipPath><clipPath id="3b690db7ce"><path d="M 199 29.09375 L 299 29.09375 L 299 170 L 199 170 Z M 199 29.09375 " clip-rule="nonzero"/></clipPath><clipPath id="72c3d5a295"><path d="M 94 29.09375 L 186 29.09375 L 186 163 L 94 163 Z M 94 29.09375 " clip-rule="nonzero"/></clipPath></defs><path fill="#ffa602" d="M 105.230469 358.859375 C 74.515625 358.851562 58.449219 337.386719 58.449219 316.179688 C 58.449219 292.730469 71.394531 282.519531 86.386719 270.691406 C 92.699219 265.707031 99.859375 260.066406 106.96875 252.699219 C 112.867188 246.589844 118.164062 240.292969 123.285156 234.199219 C 138.808594 215.753906 153.457031 198.324219 176.84375 198.324219 C 202.832031 198.324219 215.589844 217.453125 229.09375 237.710938 C 233.78125 244.746094 238.632812 252.011719 244.238281 258.835938 C 250.988281 267.035156 261.957031 271.882812 272.5625 276.574219 C 288.636719 283.679688 306.851562 291.730469 306.851562 312.898438 C 306.851562 340.59375 289.410156 354.640625 255.023438 354.640625 C 241.988281 354.640625 229.734375 352.3125 217.890625 350.058594 C 205.761719 347.753906 193.226562 345.359375 179.453125 345.359375 C 166.800781 345.359375 156.847656 348.367188 146.320312 351.554688 C 134.457031 355.144531 122.179688 358.859375 105.230469 358.859375 Z M 105.230469 358.859375 " fill-opacity="1" fill-rule="nonzero"/><path fill="#ffa602" d="M 235.632812 161.839844 C 198.347656 161.839844 189.960938 101.070312 189.960938 79.785156 C 189.960938 53 209.648438 15.902344 246.632812 15.902344 C 265.753906 15.902344 292.246094 37.640625 292.246094 78.464844 C 292.246094 118.882812 272.402344 161.839844 235.632812 161.839844 Z M 235.632812 161.839844 " fill-opacity="1" fill-rule="nonzero"/><path fill="#ffa602" d="M 131.269531 154.542969 C 100.1875 154.542969 80.367188 106.464844 80.367188 81.328125 C 80.367188 49.613281 98.707031 15.902344 132.695312 15.902344 C 155.015625 15.902344 175.347656 42.980469 175.347656 72.722656 C 175.347656 140.351562 151.375 154.542969 131.269531 154.542969 Z M 131.269531 154.542969 " fill-opacity="1" fill-rule="nonzero"/><path fill="#ffa602" d="M 47.863281 263.992188 C 18.644531 263.992188 0 227.898438 0 203.035156 C 0 168.171875 24.820312 132.652344 49.183594 132.652344 C 72.292969 132.652344 94.980469 160.488281 94.980469 188.859375 C 94.980469 225.796875 77.359375 263.992188 47.863281 263.992188 Z M 47.863281 263.992188 " fill-opacity="1" fill-rule="nonzero"/><path fill="#ffa602" d="M 302.535156 263.992188 C 302.527344 263.992188 302.535156 263.992188 302.535156 263.992188 C 299.707031 263.992188 296.871094 263.664062 294.101562 263.015625 C 281.851562 260.15625 272.269531 252.347656 267.140625 241.039062 C 259.808594 224.875 262.269531 203.808594 274.074219 181.738281 C 293.460938 145.507812 316.136719 128.492188 337.683594 133.503906 C 345.976562 135.460938 353.003906 141.464844 358.03125 150.894531 C 366.519531 166.800781 367.675781 189.597656 360.902344 207.605469 C 347.765625 242.386719 325.402344 263.992188 302.535156 263.992188 Z M 302.535156 263.992188 " fill-opacity="1" fill-rule="nonzero"/><g clip-path="url(#3427313841)"><path stroke-linecap="round" transform="matrix(7.04159, 0, 0, 7.037233, 16.796808, 15.020767)" fill="none" stroke-linejoin="round" d="M 41.000271 42.701264 C 41.000271 45.911865 39.04204 47.422247 34.9059 47.422247 C 31.434893 47.422247 28.419883 46.149996 24.562777 46.149996 C 20.709 46.149996 18.644813 48.001198 14.403273 48.001198 C 10.536182 48.000088 9.000108 45.230778 9.000108 43.153102 C 9.000108 39.189253 12.083906 38.544801 15.360754 35.146027 C 18.638156 31.747807 20.540914 27.999886 24.20497 27.999886 C 28.34111 27.999886 29.689127 32.316768 32.656985 35.928139 C 35.228204 39.057143 41.000271 38.836775 41.000271 42.701264 Z M 41.000271 42.701264 " stroke="#000000" stroke-width="2" stroke-opacity="1" stroke-miterlimit="10"/></g><g clip-path="url(#3b690db7ce)"><path stroke-linecap="round" transform="matrix(7.04159, 0, 0, 7.037233, 16.796808, 15.020767)" fill="none" stroke-linejoin="round" d="M 32.250916 20.999732 C 36.606178 20.999732 38.99988 15.65317 38.99988 10.574159 C 38.99988 5.496258 35.80125 3.000049 33.757034 3.000049 C 29.310795 3.000049 26.999749 7.633884 26.999749 10.755116 C 26.999749 13.871908 28.22406 20.999732 32.250916 20.999732 Z M 32.250916 20.999732 " stroke="#000000" stroke-width="2" stroke-opacity="1" stroke-miterlimit="10"/></g><g clip-path="url(#72c3d5a295)"><path stroke-linecap="round" transform="matrix(7.04159, 0, 0, 7.037233, 16.796808, 15.020767)" fill="none" stroke-linejoin="round" d="M 17.966921 20.000027 C 21.968814 20.000027 23.000075 14.762262 23.000075 9.787051 C 23.000075 6.228968 20.633001 3.000049 18.16219 3.000049 C 13.957262 3.000049 12.00014 7.436274 12.00014 10.966048 C 12.00014 14.021226 14.459856 20.000027 17.966921 20.000027 Z M 17.966921 20.000027 " stroke="#000000" stroke-width="2" stroke-opacity="1" stroke-miterlimit="10"/></g><path stroke-linecap="round" transform="matrix(7.04159, 0, 0, 7.037233, 16.796808, 15.020767)" fill="none" stroke-linejoin="round" d="M 12.00014 25.702952 C 12.00014 22.284194 9.298003 18.999767 6.731777 18.999767 C 4.167769 18.999767 1.000205 23.164001 1.000205 27.646853 C 1.000205 30.582133 3.253004 35.00004 6.550931 35.00004 C 9.756218 35.00004 12.00014 30.483883 12.00014 25.702952 Z M 12.00014 25.702952 " stroke="#000000" stroke-width="2" stroke-opacity="1" stroke-miterlimit="10"/><path stroke-linecap="round" transform="matrix(7.04159, 0, 0, 7.037233, 16.796808, 15.020767)" fill="none" stroke-linejoin="round" d="M 45.99182 19.091911 C 43.445009 18.497972 40.733996 20.818775 38.394104 25.197826 C 35.690857 30.26185 37.205851 34.126894 40.483254 34.891799 C 43.665796 35.640051 46.766791 32.410022 48.459857 27.921064 C 49.792897 24.374082 48.53974 19.693066 45.99182 19.091911 Z M 45.99182 19.091911 " stroke="#000000" stroke-width="2" stroke-opacity="1" stroke-miterlimit="10"/></svg>